<svg width="26" height="25" viewBox="0 0 26 25" fill="none" xmlns="http://www.w3.org/2000/svg">
<g clip-path="url(#clip0_1035_650)">
<path d="M24.8135 13.0786C24.8135 12.256 24.7468 11.4291 24.6045 10.6199H13.1914V15.2794H19.7272C19.4559 16.7821 18.5845 18.1115 17.3085 18.9563V21.9796H21.2077C23.4974 19.8722 24.8135 16.7599 24.8135 13.0786Z" fill="#4285F4"/>
<path d="M13.1908 24.9008C16.4542 24.9008 19.2063 23.8292 21.2115 21.9797L17.3123 18.9563C16.2275 19.6944 14.8269 20.1123 13.1952 20.1123C10.0385 20.1123 7.36198 17.9827 6.40163 15.1194H2.37793V18.2361C4.43202 22.322 8.61578 24.9008 13.1908 24.9008V24.9008Z" fill="#34A853"/>
<path d="M6.39819 15.1194C5.89134 13.6166 5.89134 11.9893 6.39819 10.4866V7.36987H2.37894C0.66275 10.7889 0.66275 14.8171 2.37894 18.2361L6.39819 15.1194V15.1194Z" fill="#FBBC04"/>
<path d="M13.1908 5.48919C14.9159 5.46252 16.5831 6.11164 17.8325 7.30319L21.2871 3.84859C19.0996 1.7945 16.1963 0.665198 13.1908 0.700767C8.61578 0.700767 4.43202 3.27949 2.37793 7.36988L6.39718 10.4866C7.35309 7.61886 10.0341 5.48919 13.1908 5.48919V5.48919Z" fill="#EA4335"/>
</g>
<defs>
<clipPath id="clip0_1035_650">
<rect width="24.2" height="24.2" fill="white" transform="translate(0.849609 0.699951)"/>
</clipPath>
</defs>
</svg>
